<svg width="960" height="600" version="1.1" xmlns="http://www.w3.org/2000/svg"><g></g><g transform="translate(480,300)scale(1.255230188369751,1.255230188369751)"><text text-anchor="middle" transform="translate(116,-120)rotate(5)scale(1,1)" style="font-size: 99px; font-family: Impact; fill: rgb(107, 110, 207);">Java</text><text text-anchor="middle" transform="translate(16,45)rotate(-10)scale(0.9999999999999999,0.9999999999999999)" style="font-size: 82px; font-family: Impact; fill: rgb(156, 158, 222);">Design</text><text text-anchor="middle" transform="translate(-63,125)rotate(-10)scale(0.9999999999999999,0.9999999999999999)" style="font-size: 82px; font-family: Impact; fill: rgb(99, 121, 57);">Pattern</text><text text-anchor="middle" transform="translate(-136,-103)rotate(10)scale(0.9999999999999999,0.9999999999999999)" style="font-size: 59px; font-family: Impact; fill: rgb(140, 162, 82);">CommandLine</text><text text-anchor="middle" transform="translate(-213,-36)rotate(-10)scale(0.9999999999999999,0.9999999999999999)" style="font-size: 54px; font-family: Impact; fill: rgb(214, 97, 107);">Javascript</text><text text-anchor="middle" transform="translate(66,-45)rotate(-10)scale(0.9999999999999999,0.9999999999999999)" style="font-size: 48px; font-family: Impact; fill: rgb(181, 207, 107);">Android</text><text text-anchor="middle" transform="translate(-45,-203)rotate(-10)scale(0.9999999999999999,0.9999999999999999)" style="font-size: 40px; font-family: Impact; fill: rgb(206, 219, 156);">Maven</text><text text-anchor="middle" transform="translate(-240,-79)rotate(5)" style="font-size: 40px; font-family: Impact; fill: rgb(140, 109, 49);">OSX</text><text text-anchor="middle" transform="translate(-133,-17)rotate(0)" style="font-size: 29px; font-family: Impact; fill: rgb(189, 158, 57);">C++</text><text text-anchor="middle" transform="translate(167,58)rotate(0)scale(1,1)" style="font-size: 29px; font-family: Impact; fill: rgb(231, 186, 82);">Gradle</text><text text-anchor="middle" transform="translate(-113,-169)rotate(-5)scale(1,1)" style="font-size: 29px; font-family: Impact; fill: rgb(231, 203, 148);">Concurrency</text><text text-anchor="middle" transform="translate(-49,-55)rotate(10)scale(0.9999999999999999,0.9999999999999999)" style="font-size: 29px; font-family: Impact; fill: rgb(132, 60, 57);">Bash</text><text text-anchor="middle" transform="translate(-65,-27)rotate(0)scale(1,1)" style="font-size: 29px; font-family: Impact; fill: rgb(173, 73, 74);">Nodejs</text><text text-anchor="middle" transform="translate(178,-1)rotate(-10)scale(0.9999999999999999,0.9999999999999999)" style="font-size: 10px; font-family: Impact; fill: rgb(214, 97, 107);">Retrofit</text><text text-anchor="middle" transform="translate(216,34)rotate(-5)" style="font-size: 10px; font-family: Impact; fill: rgb(165, 81, 148);">Scrum</text><text text-anchor="middle" transform="translate(218,-2)rotate(-5)" style="font-size: 10px; font-family: Impact; fill: rgb(206, 109, 189);">Agile</text><text text-anchor="middle" transform="translate(-145,20)rotate(-5)scale(1,1)" style="font-size: 10px; font-family: Impact; fill: rgb(82, 84, 163);"></text><text text-anchor="middle" transform="translate(98,-104)rotate(5)scale(1,1)" style="font-size: 10px; font-family: Impact; fill: rgb(222, 158, 214);">Express</text><text text-anchor="middle" transform="translate(66,82)rotate(-5)" style="font-size: 10px; font-family: Impact; fill: rgb(57, 59, 121);">RAII</text><text text-anchor="middle" transform="translate(62,-31)rotate(-10)scale(0.9999999999999999,0.9999999999999999)" style="font-size: 10px; font-family: Impact; fill: rgb(82, 84, 163);">Hacking</text><text text-anchor="middle" transform="translate(194,97)" style="font-size: 10px; font-family: Impact; fill: rgb(107, 110, 207);">OOP</text><text text-anchor="middle" transform="translate(-62,-9)rotate(0)" style="font-size: 10px; font-family: Impact; fill: rgb(156, 158, 222);">Network</text><text text-anchor="middle" transform="translate(-102,-8)rotate(10)scale(0.9999999999999999,0.9999999999999999)" style="font-size: 10px; font-family: Impact; fill: rgb(99, 121, 57);">TCPIP</text><text text-anchor="middle" transform="translate(-161,34)rotate(0)" style="font-size: 10px; font-family: Impact; fill: rgb(140, 162, 82);">Markdown</text><text text-anchor="middle" transform="translate(233,-40)rotate(5)" style="font-size: 10px; font-family: Impact; fill: rgb(181, 207, 107);">Serialization</text><text text-anchor="middle" transform="translate(103,-36)rotate(0)scale(1,1)" style="font-size: 10px; font-family: Impact; fill: rgb(206, 219, 156);">Xcode</text><text text-anchor="middle" transform="translate(-97,147)rotate(10)scale(0.9999999999999999,0.9999999999999999)" style="font-size: 10px; font-family: Impact; fill: rgb(140, 109, 49);">Debug</text><text text-anchor="middle" transform="translate(215,-98)rotate(0)scale(1,1)" style="font-size: 10px; font-family: Impact; fill: rgb(189, 158, 57);">HTTP</text><text text-anchor="middle" transform="translate(-131,22)rotate(-5)scale(1,1)" style="font-size: 10px; font-family: Impact; fill: rgb(231, 186, 82);">Connect</text><text text-anchor="middle" transform="translate(-5,-132)rotate(10)scale(0.9999999999999999,0.9999999999999999)" style="font-size: 10px; font-family: Impact; fill: rgb(231, 203, 148);">Windows</text><text text-anchor="middle" transform="translate(227,-125)rotate(0)scale(1,1)" style="font-size: 10px; font-family: Impact; fill: rgb(132, 60, 57);">Compiler</text><text text-anchor="middle" transform="translate(175,-98)rotate(10)scale(0.9999999999999999,0.9999999999999999)" style="font-size: 10px; font-family: Impact; fill: rgb(173, 73, 74);">Interpreter</text><text text-anchor="middle" transform="translate(-180,-97)rotate(10)scale(0.9999999999999999,0.9999999999999999)" style="font-size: 10px; font-family: Impact; fill: rgb(214, 97, 107);">Firebase</text><text text-anchor="middle" transform="translate(-282,-104)rotate(-5)" style="font-size: 10px; font-family: Impact; fill: rgb(231, 150, 156);">Hexo</text><text text-anchor="middle" transform="translate(-18,-13)rotate(0)scale(1,1)" style="font-size: 10px; font-family: Impact; fill: rgb(189, 158, 57);">Sublime2</text></g></svg>